<svg width="16" height="17" viewBox="0 0 16 17" fill="none" xmlns="http://www.w3.org/2000/svg">
<path d="M8 1.5L8.70711 0.792893L8 0.0857865L7.29289 0.792893L8 1.5ZM7 10.5C7 11.0523 7.44772 11.5 8 11.5C8.55229 11.5 9 11.0523 9 10.5H7ZM3 15.5L3 14.5H3V15.5ZM13 15.5V16.5V15.5ZM3.70711 7.20711L8.70711 2.20711L7.29289 0.792893L2.29289 5.79289L3.70711 7.20711ZM7.29289 2.20711L12.2929 7.20711L13.7071 5.79289L8.70711 0.792893L7.29289 2.20711ZM7 1.5L7 10.5H9V1.5L7 1.5ZM3 16.5L13 16.5V14.5L3 14.5L3 16.5ZM2 13.5V12.5H0V13.5H2ZM16 13.5V12.5H14V13.5H16ZM13 16.5C14.6569 16.5 16 15.1569 16 13.5H14C14 14.0523 13.5523 14.5 13 14.5V16.5ZM3 14.5C2.44772 14.5 2 14.0523 2 13.5H0C0 15.1569 1.34315 16.5 3 16.5V14.5Z" fill="#33363F"/>
</svg>
