<svg width="24" height="24" viewBox="0 0 24 24" fill="none" xmlns="http://www.w3.org/2000/svg">
<path fill-rule="evenodd" clip-rule="evenodd" d="M18.298 5.68315C17.919 5.75055 17.3818 5.92686 16.5217 6.21358L10.0307 8.37724C9.20327 8.65304 8.61951 8.84795 8.19961 9.01179C7.99194 9.09282 7.8473 9.15754 7.74673 9.2106C7.66155 9.25554 7.63092 9.2803 7.6291 9.28156C7.22324 9.67446 7.22324 10.3255 7.6291 10.7184C7.63092 10.7197 7.66155 10.7444 7.74673 10.7894C7.8473 10.8424 7.99194 10.9072 8.19961 10.9882C8.61951 11.152 9.20327 11.3469 10.0307 11.6227C10.0497 11.6291 10.0685 11.6353 10.0872 11.6415C10.3606 11.7325 10.6006 11.8123 10.8215 11.9292C11.354 12.2108 11.7894 12.6461 12.071 13.1786C12.1878 13.3996 12.2677 13.6396 12.3586 13.913C12.3648 13.9317 12.3711 13.9505 12.3774 13.9695C12.6532 14.7969 12.8481 15.3806 13.0119 15.8005C13.093 16.0082 13.1577 16.1528 13.2108 16.2534C13.2557 16.3386 13.2805 16.3692 13.2817 16.371C13.6746 16.7769 14.3257 16.7769 14.7186 16.371C14.7198 16.3692 14.7446 16.3386 14.7895 16.2534C14.8426 16.1528 14.9073 16.0082 14.9884 15.8005C15.1522 15.3806 15.3471 14.7969 15.6229 13.9695L17.7866 7.4785C18.0733 6.61832 18.2496 6.0811 18.317 5.70219C18.3184 5.6943 18.3197 5.68663 18.321 5.67916C18.3135 5.68042 18.3058 5.68175 18.298 5.68315ZM18.5569 5.66004C18.5567 5.66022 18.5534 5.65995 18.5477 5.65868C18.5542 5.65922 18.5571 5.65985 18.5569 5.66004ZM18.3415 5.45245C18.3402 5.44671 18.3399 5.44343 18.3401 5.44322C18.3403 5.44302 18.3409 5.44588 18.3415 5.45245ZM17.9477 3.71406C18.4987 3.61605 19.2532 3.58686 19.8332 4.16691C20.4133 4.74697 20.3841 5.50148 20.2861 6.05247C20.1898 6.5939 19.9633 7.27302 19.7078 8.03931L19.6839 8.11095L17.5203 14.6019L17.5109 14.6301C17.2466 15.423 17.0359 16.0549 16.8516 16.5275C16.6782 16.9717 16.4728 17.4321 16.1633 17.7541C14.9828 18.9825 13.0175 18.9825 11.837 17.7541C11.5275 17.4321 11.3221 16.9717 11.1487 16.5275C10.9644 16.055 10.7537 15.423 10.4895 14.6303L10.48 14.6019C10.3596 14.2407 10.3325 14.1694 10.303 14.1136C10.2091 13.9361 10.064 13.791 9.88652 13.6971C9.8307 13.6676 9.75941 13.6405 9.39821 13.5201L9.36988 13.5107C8.5771 13.2464 7.94518 13.0358 7.47264 12.8514C7.02846 12.6781 6.56809 12.4726 6.24604 12.1631C5.0176 10.9826 5.0176 9.01733 6.24604 7.83686C6.56809 7.52738 7.02846 7.32189 7.47264 7.14859C7.9452 6.96421 8.57714 6.75356 9.36997 6.48929L9.39821 6.47988L15.8892 4.31622C15.9131 4.30823 15.937 4.30027 15.9608 4.29234C16.7271 4.03683 17.4062 3.81038 17.9477 3.71406Z" fill="#9BADAD"/>
</svg>
